<svg width="44" height="44" viewBox="0 0 44 44" fill="none" xmlns="http://www.w3.org/2000/svg">
<path d="M33 22C33 24.249 32.3251 26.3404 31.1667 28.0826C30.1919 29.5487 28.8748 30.7675 27.3295 31.625C25.7507 32.5011 23.9336 33 22 33C20.0664 33 18.2493 32.5011 16.6705 31.625C15.1252 30.7675 13.8081 29.5487 12.8333 28.0826C11.6749 26.3404 11 24.249 11 22C11 19.751 11.6749 17.6596 12.8333 15.9174C13.8081 14.4513 15.1252 13.2325 16.6705 12.375C18.2493 11.4989 20.0664 11 22 11C23.9336 11 25.7507 11.4989 27.3295 12.375C28.8748 13.2325 30.1919 14.4513 31.1667 15.9174C32.3251 17.6596 33 19.751 33 22Z" fill="#A6B4CB"/>
<path d="M33 22C24.4085 22 19.5915 22 11 22M33 22C33 19.751 32.3251 17.6596 31.1667 15.9174M33 22C33 24.249 32.3251 26.3404 31.1667 28.0826M22 33C22 24.4085 22 19.5915 22 11M12.8333 28.0826C13.8081 29.5487 15.1252 30.7675 16.6705 31.625C18.2493 32.5011 20.0664 33 22 33M22 33C23.9336 33 25.7507 32.5011 27.3295 31.625M11 22C11 19.751 11.6749 17.6596 12.8333 15.9174M11 22C11 24.249 11.6749 26.3404 12.8333 28.0826M12.8333 15.9174C13.8081 14.4513 15.1252 13.2325 16.6705 12.375C18.2493 11.4989 20.0664 11 22 11M22 11C23.9336 11 25.7507 11.4989 27.3295 12.375M12.8333 15.9174C19.742 17.8536 23.748 17.9169 31.1667 15.9174M31.1667 15.9174C30.1919 14.4513 28.8748 13.2325 27.3295 12.375M12.8333 28.0826C20.1158 26.7413 24.1495 26.7245 31.1667 28.0826M31.1667 28.0826C30.1919 29.5487 28.8748 30.7675 27.3295 31.625M16.6705 12.375C14.0385 20.2103 14.036 24.4337 16.6705 31.625M27.3295 12.375C28.9691 19.997 29.1321 24.1986 27.3295 31.625" stroke="white" stroke-width="1.5"/>
</svg>
