<svg width="44" height="44" viewBox="0 0 44 44" fill="none" xmlns="http://www.w3.org/2000/svg">
<path d="M12.5715 13.4285H10.8572C10.3838 13.4285 10 13.8122 10 14.2856V32.2858C10 32.7592 10.3838 33.1429 10.8572 33.1429H12.5715C13.0448 33.1429 13.4286 32.7592 13.4286 32.2858V14.2856C13.4286 13.8122 13.0448 13.4285 12.5715 13.4285Z" fill="#A6B4CB" stroke="white" stroke-width="1.5" stroke-linejoin="round"/>
<path d="M20.2857 16.8571H15.1428C14.6694 16.8571 14.2856 17.2408 14.2856 17.7142V32.2858C14.2856 32.7592 14.6694 33.1429 15.1428 33.1429H20.2857C20.7591 33.1429 21.1429 32.7592 21.1429 32.2858V17.7142C21.1429 17.2408 20.7591 16.8571 20.2857 16.8571Z" fill="#A6B4CB" stroke="white" stroke-width="1.5" stroke-linejoin="round"/>
<path d="M26.2858 10.8571H22.8572C22.3838 10.8571 22 11.2408 22 11.7142V32.2858C22 32.7592 22.3838 33.143 22.8572 33.143H26.2858C26.7591 33.143 27.1429 32.7592 27.1429 32.2858V11.7142C27.1429 11.2408 26.7591 10.8571 26.2858 10.8571Z" fill="#A6B4CB" stroke="white" stroke-width="1.5" stroke-linejoin="round"/>
<path d="M30.9173 13.4344L28.753 13.662C28.1573 13.7247 27.7255 14.2819 27.7925 14.8996L29.6632 32.1278C29.7307 32.7454 30.2723 33.1992 30.8681 33.1371L33.0324 32.9094C33.6281 32.8467 34.0599 32.2896 33.9929 31.6719L32.1249 14.4463C32.0547 13.826 31.5131 13.3717 30.9173 13.4344Z" fill="#A6B4CB" stroke="white" stroke-width="1.5" stroke-linejoin="round"/>
<path d="M14.2856 20.2856H21.1429M14.2856 29.7143H21.1429" stroke="white" stroke-width="1.5" stroke-linecap="round" stroke-linejoin="round"/>
</svg>
