<svg width="44" height="44" viewBox="0 0 44 44" fill="none" xmlns="http://www.w3.org/2000/svg">
<path fill-rule="evenodd" clip-rule="evenodd" d="M26.0384 26.2867C25.911 27.0118 25.7087 27.6921 25.4592 28.323C25.1678 28.3898 24.8744 28.4196 24.586 28.4196V26.7451C24.8911 26.745 25.1746 26.6903 25.4287 26.5772C25.6131 26.4957 25.8183 26.3992 26.0384 26.2867ZM17.8726 18.2744L17.8135 18.2865C17.7202 18.3056 17.6261 18.3238 17.5314 18.3409C17.6461 18.3202 17.7599 18.298 17.8726 18.2744ZM21.5432 27.1539C21.1357 26.9354 20.6279 27.0887 20.4095 27.4962C20.1478 27.9842 19.7323 28.2992 19.2615 28.3847C18.7929 28.4688 18.3043 28.3183 17.9009 27.9552C17.5573 27.6459 17.0275 27.6739 16.7181 28.0173C16.4087 28.361 16.4366 28.8908 16.7802 29.2002C17.5174 29.8638 18.5187 30.2199 19.5613 30.032C20.6017 29.8428 21.4172 29.1603 21.8856 28.2866C22.1036 27.8793 21.9502 27.3725 21.5432 27.1539ZM17.1444 23.5727C16.6935 23.1693 16.067 22.9372 15.4011 23.057L15.3881 23.0603C15.0777 23.1214 14.7853 23.2527 14.5334 23.444C14.2817 23.6352 14.077 23.8812 13.9349 24.1635C13.727 24.5764 13.8928 25.0795 14.3055 25.2875C14.7185 25.4954 15.2226 25.3298 15.4306 24.9169C15.4581 24.8622 15.4974 24.8143 15.5461 24.7773C15.5935 24.7414 15.6483 24.7165 15.7064 24.7043C15.7962 24.6907 15.9109 24.7151 16.028 24.8198C16.3726 25.1281 16.9015 25.099 17.2098 24.7544C17.5179 24.4099 17.4886 23.881 17.1444 23.5727ZM22.8547 22.5446C22.4021 22.1379 21.7775 21.9098 21.1137 22.0268C20.4492 22.1467 19.9394 22.5828 19.654 23.1137C19.4353 23.5209 19.5881 24.0286 19.9952 24.2475C20.4024 24.4662 20.9101 24.3134 21.129 23.9063C21.2095 23.7564 21.3159 23.6905 21.4059 23.674C21.5008 23.6579 21.6171 23.6836 21.7351 23.7896C22.0791 24.0986 22.6089 24.0703 22.918 23.7264C23.2266 23.3825 23.1982 22.8536 22.8547 22.5446Z" fill="white"/>
<path d="M32.8362 12.2174H32.8329C33.6777 12.3694 34.103 13.1983 33.9787 13.9235C34.103 13.1983 33.681 12.3694 32.8362 12.2174Z" fill="white"/>
<path d="M25.4284 26.5773L25.4306 26.5762C25.6144 26.4949 25.8188 26.3988 26.0381 26.2868C26.1979 25.377 26.2397 24.3966 26.1086 23.3547L26.0399 22.8946L24.9934 16.8158C24.8665 16.0903 24.1873 15.4492 23.3341 15.6046C23.0618 15.6539 22.8148 15.781 22.6189 15.9687C21.8601 16.6852 20.821 17.3214 19.5801 17.783L20.5869 11.9198C21.9938 13.1057 23.9545 14.0078 26.1708 14.4076C28.3909 14.8078 30.5391 14.6454 32.2616 14.0195L31.2805 19.7157C30.6505 23.368 27.8421 25.3652 26.0381 26.2868C25.9107 27.0119 25.7084 27.6922 25.4589 28.3231C25.1675 28.3899 24.8741 28.4197 24.5857 28.4197V26.7452C24.8908 26.7451 25.1743 26.6904 25.4284 26.5773Z" fill="white"/>
<path fill-rule="evenodd" clip-rule="evenodd" d="M17.813 18.2866L17.8721 18.2745C17.7594 18.2981 17.6456 18.3203 17.5309 18.341C17.6256 18.3239 17.7197 18.3057 17.813 18.2866Z" fill="white"/>
<path fill-rule="evenodd" clip-rule="evenodd" d="M26.0379 26.2868C27.8424 25.3645 30.6505 23.3666 31.2803 19.7157L32.2615 14.0195C30.5389 14.6455 28.3908 14.8078 26.1706 14.4076C23.9544 14.0078 21.9936 13.1057 20.5867 11.9198L19.5799 17.783C20.8208 17.3215 21.86 16.6852 22.6188 15.9687C22.8146 15.781 23.0616 15.6539 23.3339 15.6046C24.1871 15.4492 24.8663 16.0903 24.9932 16.8158L26.0398 22.8947L26.1084 23.3547C26.2395 24.3966 26.1977 25.377 26.0379 26.2868ZM26.1063 28.1079C25.8935 28.2024 25.6767 28.2732 25.4587 28.3231C24.6935 30.258 23.4847 31.7282 22.634 32.6017L22.3451 32.8895C21.7372 33.4769 20.9779 33.7914 20.2302 33.9262C19.4836 34.0609 18.6641 34.0309 17.8928 33.6886C16.0684 32.8822 11.9245 30.5456 11.0683 25.582L10.0206 19.5064C9.89975 18.7881 10.3143 17.9492 11.1664 17.7991L11.3713 17.7784C11.5739 17.773 11.7759 17.8117 11.9633 17.8929L12.2391 18.003C13.6493 18.5324 15.5193 18.7038 17.5309 18.341C17.6456 18.3203 17.7594 18.2981 17.8721 18.2745L17.813 18.2866L19.0048 11.2373L19.0354 11.1011C19.2169 10.4295 19.8678 9.87685 20.6663 10.0229C20.9342 10.0721 21.1814 10.1999 21.3782 10.3881C22.526 11.4711 24.322 12.3722 26.4671 12.7592C28.614 13.1463 30.5998 12.9257 32.0358 12.3112C32.2865 12.2026 32.5635 12.1699 32.8327 12.2174C33.6776 12.3694 34.1028 13.1983 33.9785 13.9235L32.9308 20.0002C32.0746 24.9638 27.9307 27.3016 26.1063 28.1079ZM23.4113 17.5015C22.005 18.6873 20.044 19.5897 17.8274 19.9893C15.607 20.3898 13.459 20.2268 11.7355 19.6001L12.7188 25.2974C13.4254 29.3937 16.872 31.408 18.5687 32.158C18.9623 32.3328 19.4296 32.3696 19.9326 32.279C20.4349 32.1884 20.8645 31.9914 21.1808 31.6859C22.5271 30.3838 25.0964 27.2796 24.3892 23.1792L23.4113 17.5015Z" fill="white"/>
<path d="M26.0379 26.2868C27.8424 25.3645 30.6505 23.3666 31.2803 19.7157L32.2615 14.0195C30.5389 14.6455 28.3908 14.8078 26.1706 14.4076C23.9544 14.0078 21.9936 13.1057 20.5867 11.9198L19.5799 17.783C20.8208 17.3215 21.86 16.6852 22.6188 15.9687C22.8146 15.781 23.0616 15.6539 23.3339 15.6046C24.1871 15.4492 24.8663 16.0903 24.9932 16.8158L26.0398 22.8947L26.1084 23.3547C26.2395 24.3966 26.1977 25.377 26.0379 26.2868Z" fill="#A6B4CB"/>
</svg>
